<svg xmlns="http://www.w3.org/2000/svg" width="24" height="24" viewBox="0 0 96 96" fill="none">
  <g clip-path="url(#clip0_101_536)">
    <path
      d="M44.8927 77.1621L44.887 77.1569C34.5065 67.7439 26.2154 60.2153 20.4712 53.1925C14.773 46.2259 12 40.2461 12 34C12 23.8891 19.8891 16 30 16C35.7489 16 41.329 18.6957 44.9546 22.9534L48 26.5296L51.0454 22.9534C54.671 18.6957 60.2511 16 66 16C76.1109 16 84 23.8891 84 34C84 40.2461 81.227 46.2261 75.5279 53.1986C69.7836 60.2263 61.4936 67.7637 51.1142 77.1958C51.1128 77.1971 51.1113 77.1984 51.1099 77.1997L48.0102 80.0001L44.8927 77.1621Z"
      stroke="black"
      stroke-opacity="0.2"
      stroke-width="8"
    />
  </g>
  <defs>
    <clipPath id="clip0_101_536"><rect width="96" height="96" fill="white" /></clipPath>
  </defs>
</svg>
